<svg width="280" height="40" viewBox="0 0 280 40" fill="none" xmlns="http://www.w3.org/2000/svg">
<path d="M24.5251 12H16.1807C13.8754 12 12 13.876 12 16.1819V23.8181C12 26.124 13.8754 28 16.1807 28H24.5251C26.8304 28 28.7058 26.124 28.7058 23.8181V16.1819C28.7058 13.876 26.8304 12 24.5251 12ZM13.4748 16.1819C13.4748 14.6897 14.6889 13.4752 16.1807 13.4752H24.5251C26.0169 13.4752 27.231 14.6897 27.231 16.1819V23.8181C27.231 25.3103 26.0169 26.5248 24.5251 26.5248H16.1807C14.6889 26.5248 13.4748 25.3103 13.4748 23.8181V16.1819Z" fill="white" fill-opacity="0.923"/>
<path d="M20.3526 23.8853C22.4964 23.8853 24.2414 22.1407 24.2414 19.9954C24.2414 17.8501 22.4973 16.1055 20.3526 16.1055C18.208 16.1055 16.4639 17.8501 16.4639 19.9954C16.4639 22.1407 18.208 23.8853 20.3526 23.8853ZM20.3526 17.5817C21.6838 17.5817 22.7666 18.6647 22.7666 19.9963C22.7666 21.3279 21.6838 22.411 20.3526 22.411C19.0214 22.411 17.9387 21.3279 17.9387 19.9963C17.9387 18.6647 19.0214 17.5817 20.3526 17.5817Z" fill="white" fill-opacity="0.923"/>
<path d="M24.6015 16.7348C25.1787 16.7348 25.6493 16.2651 25.6493 15.6868C25.6493 15.1084 25.1797 14.6387 24.6015 14.6387C24.0233 14.6387 23.5537 15.1084 23.5537 15.6868C23.5537 16.2651 24.0233 16.7348 24.6015 16.7348Z" fill="white" fill-opacity="0.923"/>
<path d="M33.9823 8.09252L23.8982 2.30482C21.4141 0.879062 18.3573 0.890127 15.8836 2.33383L5.9676 8.1209C3.51067 9.55479 2 12.1855 2 15.0303V25.0035C2 27.8534 3.51613 30.4881 5.98013 31.9202L15.8732 37.6698C18.3528 39.111 21.4142 39.1145 23.8971 37.679L34.0041 31.8358C36.477 30.4061 38 27.7664 38 24.91V15.0309C38 12.1655 36.4675 9.51889 33.9823 8.09252Z" stroke="white" stroke-opacity="0.923"/>
<path d="M59.8487 12L66.4473 20.8248L59.8076 28H61.3024L67.116 21.7183L71.8129 28H76.8987L69.9291 18.6788L76.1097 12H74.6149L69.2614 17.7853L64.9355 12H59.8497H59.8487ZM62.0463 13.1011H64.3821L74.6991 26.8989H72.3632L62.0463 13.1011Z" fill="white" fill-opacity="0.923"/>
<path d="M81.9823 8.09252L71.8982 2.30482C69.4141 0.879062 66.3573 0.890127 63.8836 2.33383L53.9676 8.1209C51.5107 9.55479 50 12.1855 50 15.0303V25.0035C50 27.8534 51.5161 30.4881 53.9801 31.9202L63.8732 37.6698C66.3528 39.111 69.4142 39.1145 71.8971 37.679L82.0041 31.8358C84.477 30.4061 86 27.7664 86 24.91V15.0309C86 12.1655 84.4675 9.51889 81.9823 8.09252Z" stroke="white" stroke-opacity="0.923"/>
<path d="M117.886 15.6053V17.861H120.853L120.383 20.8997H117.886V27.9006C117.385 27.9659 116.873 28 116.353 28C115.753 28 115.164 27.955 114.59 27.8679V20.8997H111.854V17.861H114.59V15.101C114.59 13.3887 116.065 12 117.887 12V12.0015C117.892 12.0015 117.897 12 117.902 12H120.854V14.628H118.925C118.352 14.628 117.887 15.0655 117.887 15.6046L117.886 15.6053Z" fill="white" fill-opacity="0.923"/>
<path d="M129.982 8.09252L119.898 2.30482C117.414 0.879062 114.357 0.890127 111.884 2.33383L101.968 8.1209C99.5107 9.55479 98 12.1855 98 15.0303V25.0035C98 27.8534 99.5161 30.4881 101.98 31.9202L111.873 37.6698C114.353 39.111 117.414 39.1145 119.897 37.679L130.004 31.8358C132.477 30.4061 134 27.7664 134 24.91V15.0309C134 12.1655 132.467 9.51889 129.982 8.09252Z" stroke="white" stroke-opacity="0.923"/>
<path fill-rule="evenodd" clip-rule="evenodd" d="M163.289 22.4371C163.275 22.4831 163.262 22.522 163.252 22.5609C162.635 24.8632 162.566 25.3745 161.933 26.4439C161.63 26.9522 161.29 27.434 160.913 27.8947C160.871 27.9469 160.831 28.0138 160.746 27.9975C160.653 27.9788 160.645 27.8994 160.636 27.8278C160.534 27.1281 160.478 26.4268 160.502 25.7201C160.534 24.8001 160.654 24.4841 161.898 19.4966C161.916 19.4204 161.896 19.3573 161.87 19.2888C161.572 18.523 161.513 17.7454 161.773 16.9578C162.337 15.2563 164.361 15.1264 164.714 16.5297C164.932 17.3975 164.356 18.5339 163.913 20.2135C163.546 21.5989 165.258 22.5843 166.721 21.5724C168.07 20.64 168.594 18.4047 168.494 16.82C168.298 13.6608 164.663 12.9782 162.357 13.9955C159.714 15.1606 159.112 18.2832 160.306 19.7107C160.458 19.892 160.743 20.0033 160.693 20.187C160.616 20.4727 160.548 20.7606 160.465 21.0447C160.403 21.2564 160.049 21.3335 159.825 21.2463C159.384 21.0766 159.018 20.8097 158.72 20.4579C157.707 19.2616 157.417 16.8955 158.757 14.8921C160.242 12.6731 163.004 11.7749 165.526 12.0473C168.538 12.3734 170.442 14.3348 170.798 16.56C170.961 17.5734 170.844 20.0726 169.351 21.8394C167.633 23.8693 164.849 24.0039 163.564 22.7578C163.466 22.6621 163.386 22.5508 163.289 22.4364V22.4371Z" fill="white" fill-opacity="0.923"/>
<path d="M177.982 8.09252L167.898 2.30482C165.414 0.879062 162.357 0.890127 159.884 2.33383L149.968 8.1209C147.511 9.55479 146 12.1855 146 15.0303V25.0035C146 27.8534 147.516 30.4881 149.98 31.9202L159.873 37.6698C162.353 39.111 165.414 39.1145 167.897 37.679L178.004 31.8358C180.477 30.4061 182 27.7664 182 24.91V15.0309C182 12.1655 180.467 9.51889 177.982 8.09252Z" stroke="white" stroke-opacity="0.923"/>
<path d="M223.657 16.2892C223.516 14.9287 223.212 13.4247 222.093 12.6344C221.227 12.0214 220.088 11.9988 219.024 12C216.777 12.0013 214.528 12.0038 212.28 12.0051C210.118 12.0076 207.956 12.0089 205.794 12.0114C204.89 12.0126 204.012 11.9422 203.174 12.3323C202.453 12.6671 201.89 13.3039 201.55 14.0124C201.08 14.9979 200.981 16.1142 200.925 17.2041C200.82 19.1888 200.831 21.1786 200.956 23.1621C201.048 24.6094 201.282 26.209 202.403 27.1315C203.397 27.9483 204.8 27.9886 206.089 27.9898C210.181 27.9936 214.274 27.9974 218.367 27.9999C218.892 28.0012 219.439 27.9911 219.974 27.9332C221.026 27.8199 222.029 27.5191 222.705 26.7414C223.388 25.9573 223.563 24.8661 223.666 23.8329C223.919 21.3258 223.916 18.7949 223.657 16.2892ZM209.913 23.5144V16.4855L216.013 19.9993L209.913 23.5144Z" fill="white" fill-opacity="0.923"/>
<path d="M225.982 8.09252L215.898 2.30482C213.414 0.879062 210.357 0.890127 207.884 2.33383L197.968 8.1209C195.511 9.55479 194 12.1855 194 15.0303V25.0035C194 27.8534 195.516 30.4881 197.98 31.9202L207.873 37.6698C210.353 39.111 213.414 39.1145 215.897 37.679L226.004 31.8358C228.477 30.4061 230 27.7664 230 24.91V15.0309C230 12.1655 228.467 9.51889 225.982 8.09252Z" stroke="white" stroke-opacity="0.923"/>
<path d="M252.813 15.1665C252.433 14.8138 252.244 14.3774 252.244 13.8581C252.244 13.3387 252.434 12.883 252.813 12.5294C253.193 12.1768 253.681 12 254.28 12C254.879 12 255.349 12.1768 255.728 12.5294C256.108 12.882 256.296 13.3256 256.296 13.8581C256.296 14.3905 256.107 14.8138 255.728 15.1665C255.348 15.5191 254.866 15.6959 254.28 15.6959C253.695 15.6959 253.193 15.5191 252.813 15.1665ZM255.977 17.1892V28H252.562V17.1892H255.977Z" fill="white" fill-opacity="0.923"/>
<path d="M267.345 18.2515C268.09 19.0598 268.461 20.1692 268.461 21.5816V27.8034H265.218V22.0201C265.218 21.3078 265.033 20.7542 264.665 20.3601C264.296 19.9661 263.799 19.768 263.177 19.768C262.555 19.768 262.058 19.9651 261.689 20.3601C261.32 20.7542 261.135 21.3078 261.135 22.0201V27.8034H257.873V17.1532H261.135V18.5657C261.466 18.0949 261.911 17.7231 262.471 17.4493C263.03 17.1755 263.66 17.0391 264.36 17.0391C265.606 17.0391 266.602 17.4432 267.345 18.2515Z" fill="white" fill-opacity="0.923"/>
<path d="M273.982 8.09252L263.898 2.30482C261.414 0.879062 258.357 0.890127 255.884 2.33383L245.968 8.1209C243.511 9.55479 242 12.1855 242 15.0303V25.0035C242 27.8534 243.516 30.4881 245.98 31.9202L255.873 37.6698C258.353 39.111 261.414 39.1145 263.897 37.679L274.004 31.8358C276.477 30.4061 278 27.7664 278 24.91V15.0309C278 12.1655 276.467 9.51889 273.982 8.09252Z" stroke="white" stroke-opacity="0.923"/>
</svg>
