<svg width="1440" height="563" viewBox="0 0 1440 563" fill="none" xmlns="http://www.w3.org/2000/svg">
<path opacity="0.8" d="M479.801 130.083L280.377 16.0329C263.026 6.1102 241.702 6.18724 224.424 16.235L27.8485 130.549C10.6075 140.575 -1.02736e-06 159.014 -1.15621e-06 178.959L-2.48102e-06 384.013C-2.61011e-06 403.993 10.6457 422.46 27.9361 432.473L224.352 546.219C241.671 556.249 263.027 556.273 280.369 546.283L479.953 431.308C497.306 421.312 508 402.81 508 382.784L508 178.695C508 158.606 497.24 140.056 479.801 130.083Z" fill="#7B59D7"/>
<path opacity="0.8" d="M712.801 130.083L513.377 16.0329C496.026 6.1102 474.702 6.18724 457.424 16.235L260.848 130.549C243.607 140.575 233 159.014 233 178.959L233 384.013C233 403.993 243.646 422.46 260.936 432.473L457.352 546.219C474.671 556.249 496.027 556.273 513.369 546.283L712.953 431.308C730.306 421.312 741 402.81 741 382.784L741 178.695C741 158.606 730.24 140.056 712.801 130.083Z" fill="#F9BD24"/>
<path opacity="0.8" d="M945.801 130.083L746.377 16.0329C729.026 6.1102 707.702 6.18724 690.424 16.235L493.848 130.549C476.607 140.575 466 159.014 466 178.959L466 384.013C466 403.993 476.646 422.46 493.936 432.473L690.352 546.219C707.671 556.249 729.027 556.273 746.369 546.283L945.953 431.308C963.306 421.312 974 402.81 974 382.784L974 178.695C974 158.606 963.24 140.056 945.801 130.083Z" fill="#F59120"/>
<path opacity="0.8" d="M1178.8 130.083L979.377 16.0329C962.026 6.1102 940.702 6.18724 923.424 16.235L726.848 130.549C709.607 140.575 699 159.014 699 178.959L699 384.013C699 403.993 709.646 422.46 726.936 432.473L923.352 546.219C940.671 556.249 962.027 556.273 979.369 546.283L1178.95 431.308C1196.31 421.312 1207 402.81 1207 382.784L1207 178.695C1207 158.606 1196.24 140.056 1178.8 130.083Z" fill="#F9BD24"/>
<path opacity="0.8" d="M1411.8 130.083L1212.38 16.0329C1195.03 6.1102 1173.7 6.18724 1156.42 16.235L959.848 130.549C942.607 140.575 932 159.014 932 178.959L932 384.013C932 403.993 942.646 422.46 959.936 432.473L1156.35 546.219C1173.67 556.249 1195.03 556.273 1212.37 546.283L1411.95 431.308C1429.31 421.312 1440 402.81 1440 382.784L1440 178.695C1440 158.606 1429.24 140.056 1411.8 130.083Z" fill="#7B59D7"/>
</svg>
