<svg width="384" height="96" viewBox="0 0 384 96" fill="none" xmlns="http://www.w3.org/2000/svg">
<g clip-path="url(#clip0_379_37)">
<path d="M89.2675 29.4679V29.7943L84.3193 32.432L48.8719 13.5046C46.2284 12.0883 43.0444 12.0883 40.3902 13.5046L4.94812 32.4373L0 29.7943V29.4679C0 26.2984 1.70588 23.3605 4.46602 21.7705L40.1412 1.20041C42.9225 -0.400135 46.3555 -0.400135 49.1315 1.20041L84.812 21.7705C87.5722 23.3605 89.2728 26.2984 89.2728 29.4679H89.2675Z" fill="white"/>
<path d="M89.2675 45.3633V50.9652C89.2675 52.7079 88.7589 54.3769 87.8371 55.7879C87.0848 56.9567 86.057 57.9465 84.8067 58.6678L80.1606 61.3424L49.1262 79.2274C46.3502 80.8332 42.9172 80.8332 40.1359 79.2274L9.10687 61.3476L4.46602 58.673C3.21575 57.9517 2.18798 56.9619 1.4357 55.7931C0.508586 54.3821 0 52.7131 0 50.9704V45.3685L4.93752 48.0063L9.10687 50.2333L19.5223 55.7931L40.3955 66.939C43.0444 68.35 46.2337 68.35 48.8772 66.939L69.7505 55.7931L80.1712 50.2281L84.3246 48.0063L89.2728 45.3685L89.2675 45.3633Z" fill="white"/>
<path d="M9.10687 45.7785L4.93752 48.0056L0 45.3626V45.0362C0 43.2987 0.508586 41.635 1.4304 40.2188C2.18268 41.3823 3.21575 42.3826 4.46602 43.0987L9.10687 45.7733V45.7785Z" fill="white"/>
<path d="M80.1611 34.6643L69.7456 40.2241L48.8724 29.0782C46.2288 27.6619 43.0449 27.6619 40.3907 29.0782L19.5175 40.2241L9.10205 34.6643L40.1417 16.7688C42.923 15.1682 46.356 15.1682 49.132 16.7688L80.1664 34.659L80.1611 34.6643Z" fill="white"/>
<path d="M89.267 45.0362V45.3626L84.3188 48.0003L80.1548 45.7733L84.8009 43.0987C86.0512 42.3826 87.0843 41.3823 87.8366 40.2188C88.7531 41.635 89.2617 43.2987 89.2617 45.0362H89.267Z" fill="white"/>
<path d="M89.2674 60.9316V66.5335C89.2674 69.7136 87.5669 72.6409 84.8067 74.2361L49.1262 94.801C46.3502 96.4015 42.9172 96.4015 40.1359 94.801L4.46602 74.2361C1.70588 72.6409 0 69.7083 0 66.5335V60.9316L4.93752 63.5694L40.3902 82.5021C43.0391 83.9131 46.2284 83.9131 48.8719 82.5021L84.3246 63.5694L89.2621 60.9316H89.2674Z" fill="white"/>
<path d="M9.10687 61.3469L4.93752 63.574L0 60.931V60.6045C0 58.8671 0.508586 57.2034 1.4357 55.7871C2.18798 56.9559 3.21575 57.9457 4.46602 58.667L9.10687 61.3416V61.3469Z" fill="white"/>
<path d="M23.1311 53.8605L19.5233 55.7874L9.10791 50.2277L12.9647 48.0059L23.1311 53.8605Z" fill="white"/>
<path d="M66.142 42.1424L55.1703 48.0023L48.8766 44.638C46.233 43.2217 43.049 43.2217 40.3948 44.638L34.1011 48.0023L23.1294 42.1424L40.1458 32.3391C42.9272 30.7385 46.3601 30.7385 49.1362 32.3391L66.1526 42.1424H66.142Z" fill="white"/>
<path d="M80.1663 50.2224L69.7455 55.7874L66.1431 53.8657L76.3095 48.0059L80.1663 50.2224Z" fill="white"/>
<path d="M89.2675 60.6045V60.931L84.33 63.5687L80.1606 61.3416L84.8068 58.667C86.0571 57.9457 87.0848 56.9559 87.8371 55.7871C88.7589 57.2034 89.2675 58.8671 89.2675 60.6045Z" fill="white"/>
<path d="M123.223 7.68945L129.952 30.0547L136.579 7.68945H146.502L133.876 41.8328H126.036L113.264 7.68945H123.23H123.223Z" fill="white"/>
<path d="M173.595 33.6564V41.8328H149.11V7.68945H173.156V15.8659H158.543V20.6729H171.03V28.2684H158.543V33.6564H173.595Z" fill="white"/>
<path d="M208.39 7.68945V41.8328H198.957V28.4645H187.442V41.8328H178.009V7.68945H187.442V20.2881H198.957V7.68945H208.39Z" fill="white"/>
<path d="M214.287 41.8328V7.68945H223.72V41.8328H214.287Z" fill="white"/>
<path d="M227.747 24.4661C227.747 22.3821 228.142 20.3271 228.931 18.3084C229.72 16.2897 230.874 14.4744 232.394 12.8768C233.907 11.2721 235.748 9.97225 237.911 8.98469C240.074 7.98987 242.536 7.49609 245.312 7.49609C248.637 7.49609 251.516 8.17867 253.949 9.53656C256.382 10.9017 258.202 12.7026 259.393 14.9464L252.181 20.0439C251.859 19.2088 251.428 18.519 250.895 17.9744C250.361 17.4298 249.777 16.9941 249.127 16.6746C248.484 16.3551 247.811 16.13 247.117 15.9993C246.423 15.8686 245.751 15.8105 245.108 15.8105C243.756 15.8105 242.587 16.0719 241.601 16.602C240.614 17.1321 239.81 17.8219 239.182 18.6715C238.554 19.5211 238.086 20.4796 237.779 21.5543C237.472 22.629 237.319 23.6964 237.319 24.7493C237.319 25.9329 237.494 27.073 237.852 28.1622C238.21 29.2514 238.722 30.2172 239.401 31.045C240.081 31.8801 240.906 32.5409 241.893 33.0419C242.879 33.543 243.983 33.7898 245.21 33.7898C245.853 33.7898 246.518 33.7172 247.19 33.572C247.863 33.4268 248.52 33.1871 249.149 32.8531C249.777 32.5191 250.339 32.0834 250.844 31.5533C251.341 31.0232 251.735 30.377 252.027 29.6072L259.721 34.1747C259.203 35.4237 258.421 36.5492 257.376 37.544C256.331 38.5388 255.133 39.3739 253.796 40.042C252.458 40.7173 251.019 41.2256 249.492 41.5814C247.958 41.9372 246.467 42.1115 245.013 42.1115C242.463 42.1115 240.132 41.6032 238.02 40.5938C235.909 39.5845 234.082 38.2484 232.555 36.5782C231.02 34.9154 229.837 33.0201 228.997 30.907C228.156 28.794 227.74 26.6446 227.74 24.4661H227.747Z" fill="white"/>
<path d="M263.067 41.8328V7.68945H272.5V33.6564H288.078V41.8328H263.06H263.067Z" fill="white"/>
<path d="M315.858 33.6564V41.8328H291.373V7.68945H315.42V15.8659H300.806V20.6729H313.293V28.2684H300.806V33.6564H315.858Z" fill="white"/>
<path d="M113.271 88.0809V53.9375H126.482C129.317 53.9375 131.823 54.3877 133.978 55.2809C136.141 56.1813 137.946 57.394 139.4 58.9334C140.854 60.4728 141.95 62.2737 142.688 64.3432C143.426 66.4127 143.799 68.6129 143.799 70.9584C143.799 73.558 143.389 75.9034 142.564 78.002C141.738 80.1005 140.569 81.8941 139.056 83.39C137.537 84.8786 135.717 86.0331 133.591 86.8537C131.465 87.6742 129.09 88.0809 126.474 88.0809H113.264H113.271ZM134.227 70.9584C134.227 69.644 134.051 68.4386 133.693 67.3494C133.335 66.2602 132.831 65.3307 132.166 64.561C131.501 63.7913 130.69 63.1886 129.726 62.7602C128.761 62.3245 127.68 62.1139 126.482 62.1139H122.704V79.9045H126.482C127.709 79.9045 128.805 79.6794 129.77 79.2292C130.734 78.7789 131.552 78.1545 132.21 77.3557C132.868 76.5569 133.372 75.6057 133.708 74.5165C134.044 73.4273 134.219 72.2436 134.219 70.9584H134.227Z" fill="white"/>
<path d="M155.417 53.9375H164.032L175.935 88.0809H166.355L164.273 81.3931H155.125L153.094 88.0809H143.463L155.417 53.9375ZM162.775 75.1482L159.728 64.5683L156.535 75.1482H162.775Z" fill="white"/>
<path d="M202.397 62.1139H192.526V88.0809H183.093V62.1139H173.17V53.9375H202.397V62.1139Z" fill="white"/>
<path d="M211.597 53.9375H220.212L232.114 88.0809H222.535L220.453 81.3931H211.305L209.273 88.0809H199.643L211.597 53.9375ZM218.955 75.1482L215.908 64.5683L212.715 75.1482H218.955Z" fill="white"/>
<path d="M264.192 79.3308C264.192 80.8702 263.87 82.1918 263.227 83.2956C262.584 84.3993 261.693 85.307 260.568 86.0114C259.435 86.7157 258.127 87.2385 256.622 87.5726C255.124 87.9066 253.531 88.0809 251.858 88.0809H234.972V53.9375H254.905C256.096 53.9375 257.177 54.1917 258.149 54.7072C259.114 55.2228 259.939 55.8836 260.619 56.7041C261.298 57.5247 261.817 58.4541 262.19 59.4925C262.562 60.5382 262.745 61.5983 262.745 62.6876C262.745 64.2923 262.336 65.8245 261.51 67.2768C260.685 68.7364 259.457 69.8328 257.806 70.5735C259.771 71.1472 261.328 72.1565 262.475 73.5797C263.622 75.0103 264.192 76.92 264.192 79.3236V79.3308ZM244.398 61.9251V67.1679H250.835C251.478 67.1679 252.07 66.9936 252.603 66.6378C253.137 66.282 253.4 65.5776 253.4 64.5247C253.4 63.5952 253.173 62.9272 252.72 62.5278C252.267 62.1284 251.734 61.9251 251.12 61.9251H244.391H244.398ZM254.605 77.4065C254.605 76.5715 254.379 75.8744 253.926 75.3152C253.473 74.7561 252.896 74.4729 252.187 74.4729H244.398V80.1949H251.851C252.625 80.1949 253.276 79.9553 253.809 79.476C254.342 78.9968 254.605 78.307 254.605 77.4065Z" fill="white"/>
<path d="M276.438 53.9375H285.052L296.955 88.0809H287.376L285.294 81.3931H276.145L274.114 88.0809H264.484L276.438 53.9375ZM283.796 75.1482L280.749 64.5683L277.556 75.1482H283.796Z" fill="white"/>
<path d="M320.228 65.0919C319.263 64.5183 318.262 64.0027 317.225 63.5525C316.355 63.1677 315.376 62.8046 314.295 62.4706C313.213 62.1365 312.154 61.9623 311.124 61.9623C310.283 61.9623 309.618 62.093 309.114 62.3471C308.61 62.6013 308.362 63.037 308.362 63.6469C308.362 64.0971 308.508 64.4675 308.8 64.7507C309.092 65.0411 309.509 65.3025 310.057 65.5422C310.605 65.7818 311.277 66.0141 312.066 66.2393C312.855 66.4644 313.754 66.7403 314.755 67.0598C316.333 67.5391 317.765 68.0691 319.037 68.6501C320.308 69.2237 321.397 69.9063 322.303 70.6905C323.209 71.4748 323.903 72.4333 324.385 73.5515C324.868 74.6771 325.109 76.035 325.109 77.6397C325.109 79.6947 324.729 81.4157 323.969 82.8099C323.209 84.2041 322.208 85.3224 320.966 86.1502C319.724 86.9852 318.321 87.5879 316.757 87.951C315.193 88.3214 313.623 88.5029 312.037 88.5029C310.78 88.5029 309.487 88.4085 308.164 88.2124C306.842 88.0236 305.527 87.7477 304.219 87.3919C302.911 87.0361 301.654 86.6222 300.441 86.1429C299.228 85.6637 298.11 85.119 297.08 84.5091L301.143 76.2891C302.268 76.9935 303.452 77.618 304.672 78.1626C305.702 78.6418 306.871 79.0775 308.179 79.4624C309.487 79.8472 310.817 80.036 312.168 80.036C313.199 80.036 313.915 79.8981 314.324 79.6294C314.726 79.3607 314.93 78.9976 314.93 78.5474C314.93 78.0682 314.726 77.6615 314.324 77.3202C313.922 76.9862 313.367 76.6885 312.658 76.4343C311.949 76.1802 311.131 75.9188 310.218 75.6646C309.297 75.4105 308.325 75.1055 307.288 74.7497C305.768 74.2341 304.467 73.6823 303.371 73.0941C302.275 72.4986 301.369 71.8306 300.66 71.0754C299.952 70.3202 299.426 69.4633 299.089 68.5048C298.753 67.5463 298.578 66.4353 298.578 65.1863C298.578 63.2984 298.921 61.6282 299.616 60.1832C300.31 58.7382 301.252 57.54 302.443 56.5743C303.634 55.6157 305.001 54.8823 306.535 54.3886C308.069 53.8948 309.692 53.6406 311.401 53.6406C312.658 53.6406 313.886 53.7641 315.077 54.0037C316.268 54.2433 317.422 54.5483 318.54 54.9186C319.651 55.289 320.695 55.6884 321.66 56.124C322.624 56.5597 323.501 56.9664 324.276 57.3512L320.213 65.0919H320.228Z" fill="white"/>
<path d="M353.766 79.9045V88.0809H329.281V53.9375H353.328V62.1139H338.714V66.921H351.201V74.5165H338.714V79.9045H353.766Z" fill="white"/>
<path d="M378.974 65.0919C378.009 64.5183 377.008 64.0027 375.971 63.5525C375.101 63.1677 374.122 62.8046 373.041 62.4706C371.959 62.1365 370.9 61.9623 369.87 61.9623C369.029 61.9623 368.365 62.093 367.86 62.3471C367.356 62.6013 367.108 63.037 367.108 63.6469C367.108 64.0971 367.254 64.4675 367.546 64.7507C367.838 65.0411 368.255 65.3025 368.803 65.5422C369.351 65.7818 370.023 66.0141 370.812 66.2393C371.601 66.4644 372.5 66.7403 373.501 67.0598C375.079 67.5391 376.512 68.0691 377.783 68.6501C379.054 69.2237 380.143 69.9063 381.049 70.6905C381.955 71.4748 382.649 72.4333 383.131 73.5515C383.614 74.6771 383.855 76.035 383.855 77.6397C383.855 79.6947 383.475 81.4157 382.715 82.8099C381.955 84.2041 380.954 85.3224 379.712 86.1502C378.47 86.9852 377.067 87.5879 375.503 87.951C373.94 88.3214 372.369 88.5029 370.783 88.5029C369.526 88.5029 368.233 88.4085 366.91 88.2124C365.588 88.0236 364.273 87.7477 362.965 87.3919C361.657 87.0361 360.4 86.6222 359.187 86.1429C357.974 85.6637 356.856 85.119 355.826 84.5091L359.889 76.2891C361.014 76.9935 362.198 77.618 363.418 78.1626C364.448 78.6418 365.617 79.0775 366.925 79.4624C368.233 79.8472 369.563 80.036 370.915 80.036C371.945 80.036 372.661 79.8981 373.07 79.6294C373.472 79.3607 373.677 78.9976 373.677 78.5474C373.677 78.0682 373.472 77.6615 373.07 77.3202C372.668 76.9862 372.113 76.6885 371.404 76.4343C370.695 76.1802 369.877 75.9188 368.964 75.6646C368.043 75.4105 367.071 75.1055 366.034 74.7497C364.514 74.2341 363.213 73.6823 362.117 73.0941C361.021 72.4986 360.115 71.8306 359.406 71.0754C358.698 70.3202 358.172 69.4633 357.836 68.5048C357.499 67.5463 357.324 66.4353 357.324 65.1863C357.324 63.2984 357.667 61.6282 358.362 60.1832C359.056 58.7382 359.998 57.54 361.189 56.5743C362.38 55.6157 363.747 54.8823 365.281 54.3886C366.816 53.8948 368.438 53.6406 370.147 53.6406C371.404 53.6406 372.632 53.7641 373.823 54.0037C375.014 54.2433 376.168 54.5483 377.286 54.9186C378.397 55.289 379.442 55.6884 380.406 56.124C381.371 56.5597 382.247 56.9664 383.022 57.3512L378.959 65.0919H378.974Z" fill="white"/>
</g>
<defs>
<clipPath id="clip0_379_37">
<rect width="383.855" height="96" fill="white"/>
</clipPath>
</defs>
</svg>
