<svg width="128" height="32" viewBox="0 0 128 32" fill="none" xmlns="http://www.w3.org/2000/svg">
<g clip-path="url(#clip0_275_2370)">
<g clip-path="url(#clip1_275_2370)">
<path d="M29.8749 9.79774V9.90699L28.2189 10.7898L16.3558 4.45536C15.4711 3.98138 14.4055 3.98138 13.5173 4.45536L1.65597 10.7915L0 9.90699V9.79774C0 8.73702 0.570903 7.75382 1.49463 7.2217L13.4339 0.337558C14.3648 -0.198091 15.5137 -0.198091 16.4427 0.337558L28.3838 7.2217C29.3075 7.75382 29.8766 8.73702 29.8766 9.79774H29.8749Z" fill="#FDFDFD"/>
<path d="M29.8749 15.1172V16.992C29.8749 17.5752 29.7047 18.1338 29.3962 18.606C29.1444 18.9971 28.8004 19.3284 28.382 19.5698L26.8271 20.4649L16.4409 26.4504C15.5119 26.9878 14.363 26.9878 13.4322 26.4504L3.04777 20.4667L1.49463 19.5716C1.0762 19.3302 0.732245 18.9989 0.48048 18.6077C0.170207 18.1355 0 17.577 0 16.9937V15.119L1.65243 16.0017L3.04777 16.7471L6.53347 18.6077L13.519 22.3379C14.4055 22.8101 15.4729 22.8101 16.3576 22.3379L23.3432 18.6077L26.8307 16.7453L28.2207 16.0017L29.8766 15.119L29.8749 15.1172Z" fill="url(#paint0_linear_275_2370)"/>
<path d="M3.04777 15.2564L1.65243 16.0017L0 15.1172V15.008C0 14.4265 0.170207 13.8697 0.478707 13.3957C0.730472 13.7851 1.0762 14.1199 1.49463 14.3595L3.04777 15.2546V15.2564Z" fill="#D9D9D9"/>
<path d="M26.827 11.5368L23.3413 13.3975L16.3557 9.66735C15.471 9.19337 14.4054 9.19337 13.5172 9.66735L6.5316 13.3975L3.0459 11.5368L13.4338 5.54779C14.3647 5.01215 15.5136 5.01215 16.4426 5.54779L26.8288 11.5351L26.827 11.5368Z" fill="#FDFDFD"/>
<path d="M29.8747 15.008V15.1172L28.2188 16L26.8252 15.2546L28.3801 14.3595C28.7985 14.1199 29.1443 13.7851 29.396 13.3957C29.7028 13.8697 29.873 14.4265 29.873 15.008H29.8747Z" fill="#D9D9D9"/>
<path d="M29.8749 20.3274V22.2022C29.8749 23.2664 29.3057 24.2461 28.382 24.78L16.4409 31.6624C15.5119 32.198 14.363 32.198 13.4322 31.6624L1.49463 24.78C0.570903 24.2461 0 23.2647 0 22.2022V20.3274L1.65243 21.2102L13.5173 27.5463C14.4038 28.0186 15.4711 28.0186 16.3558 27.5463L28.2207 21.2102L29.8731 20.3274H29.8749Z" fill="url(#paint1_linear_275_2370)"/>
<path d="M3.04777 20.4666L1.65243 21.212L0 20.3274V20.2182C0 19.6367 0.170207 19.0799 0.48048 18.606C0.732245 18.9971 1.0762 19.3284 1.49463 19.5698L3.04777 20.4649V20.4666Z" fill="#D9D9D9"/>
<path d="M7.74095 17.9611L6.53355 18.606L3.04785 16.7453L4.33859 16.0017L7.74095 17.9611Z" fill="#D9D9D9"/>
<path d="M22.1356 14.0388L18.4638 16L16.3575 14.874C15.4727 14.4001 14.4072 14.4001 13.5189 14.874L11.4126 16L7.74072 14.0388L13.4356 10.758C14.3664 10.2224 15.5153 10.2224 16.4443 10.758L22.1392 14.0388H22.1356Z" fill="#FDFDFD"/>
<path d="M26.8288 16.7435L23.3414 18.606L22.1357 17.9628L25.5381 16.0017L26.8288 16.7435Z" fill="#D9D9D9"/>
<path d="M29.8749 20.2182V20.3274L28.2225 21.2102L26.8271 20.4649L28.3821 19.5698C28.8005 19.3284 29.1444 18.9971 29.3962 18.606C29.7047 19.0799 29.8749 19.6367 29.8749 20.2182Z" fill="#D9D9D9"/>
</g>
<path d="M41.2914 2.56195L43.5345 10.017L45.7436 2.56195H49.0511L44.8425 13.9431H42.2291L37.9717 2.56195H41.2938H41.2914Z" fill="white"/>
<path d="M58.082 11.2176V13.9431H49.9204V2.56195H57.9359V5.28742H53.0647V6.88978H57.2272V9.42161H53.0647V11.2176H58.082Z" fill="white"/>
<path d="M69.6804 2.56195V13.9431H66.536V9.48696H62.6976V13.9431H59.5532V2.56195H62.6976V6.76149H66.536V2.56195H69.6804Z" fill="white"/>
<path d="M71.646 13.9431V2.56195H74.7903V13.9431H71.646Z" fill="white"/>
<path d="M76.1328 8.15549C76.1328 7.46081 76.2643 6.77581 76.5274 6.10291C76.7904 5.43002 77.1752 4.8249 77.6818 4.29239C78.186 3.75746 78.7998 3.3242 79.5207 2.99501C80.2416 2.6634 81.0624 2.49881 81.9879 2.49881C83.0961 2.49881 84.0558 2.72634 84.8668 3.17897C85.6778 3.63402 86.2843 4.2343 86.6813 4.98223L84.2774 6.68141C84.1702 6.40305 84.0265 6.17311 83.8487 5.99157C83.6709 5.81004 83.4761 5.66481 83.2593 5.5583C83.045 5.4518 82.8209 5.37677 82.5895 5.3332C82.3582 5.28963 82.1341 5.27027 81.9198 5.27027C81.4692 5.27027 81.0795 5.3574 80.7507 5.5341C80.4219 5.7108 80.154 5.94074 79.9445 6.22394C79.735 6.50714 79.5792 6.82664 79.4769 7.18487C79.3746 7.5431 79.3234 7.89892 79.3234 8.24989C79.3234 8.64442 79.3819 9.02444 79.5012 9.38751C79.6206 9.75059 79.791 10.0725 80.0176 10.3484C80.2441 10.6268 80.5193 10.8471 80.8481 11.0141C81.1769 11.1811 81.5447 11.2634 81.9538 11.2634C82.1682 11.2634 82.3898 11.2392 82.6139 11.1908C82.838 11.1424 83.0572 11.0625 83.2666 10.9511C83.4761 10.8398 83.6636 10.6946 83.8317 10.5179C83.9973 10.3412 84.1288 10.1258 84.2262 9.86919L86.7909 11.3917C86.618 11.808 86.3574 12.1832 86.0091 12.5148C85.6608 12.8464 85.2614 13.1247 84.8157 13.3474C84.3699 13.5725 83.8901 13.742 83.3811 13.8606C82.8696 13.9792 82.3728 14.0373 81.8881 14.0373C81.0381 14.0373 80.2611 13.8678 79.5572 13.5314C78.8534 13.1949 78.2445 12.7496 77.7354 12.1929C77.2239 11.6386 76.8294 11.0068 76.5493 10.3025C76.2692 9.5981 76.1304 8.88163 76.1304 8.15549H76.1328Z" fill="white"/>
<path d="M87.9062 13.9431V2.56195H91.0506V11.2176H96.2432V13.9431H87.9038H87.9062Z" fill="white"/>
<path d="M105.503 11.2176V13.9431H97.3413V2.56195H105.357V5.28742H100.486V6.88978H104.648V9.42161H100.486V11.2176H105.503Z" fill="white"/>
<path d="M37.9741 29.3605V17.9794H42.3776C43.3226 17.9794 44.1581 18.1295 44.8766 18.4272C45.5975 18.7273 46.1991 19.1316 46.6838 19.6447C47.1684 20.1578 47.5338 20.7581 47.7798 21.448C48.0258 22.1378 48.15 22.8712 48.15 23.653C48.15 24.5196 48.0136 25.3014 47.7384 26.0009C47.4631 26.7004 47.0734 27.2983 46.5693 27.7969C46.0627 28.2931 45.4562 28.6779 44.7475 28.9515C44.0387 29.225 43.2471 29.3605 42.3752 29.3605H37.9717H37.9741ZM44.9594 23.653C44.9594 23.2149 44.9009 22.8131 44.7816 22.45C44.6622 22.087 44.4942 21.7771 44.2725 21.5206C44.0509 21.264 43.7805 21.0631 43.459 20.9203C43.1375 20.7751 42.7771 20.7049 42.3776 20.7049H41.1184V26.6351H42.3776C42.7868 26.6351 43.1522 26.56 43.4737 26.41C43.7952 26.2599 44.0679 26.0517 44.2871 25.7855C44.5063 25.5192 44.6744 25.2021 44.7864 24.8391C44.8985 24.476 44.9569 24.0814 44.9569 23.653H44.9594Z" fill="white"/>
<path d="M52.0227 17.9794H54.8942L58.8618 29.3605H55.6688L54.9746 27.1313H51.9253L51.2482 29.3605H48.0381L52.0227 17.9794ZM54.4753 25.0496L53.4597 21.523L52.3953 25.0496H54.4753Z" fill="white"/>
<path d="M67.6828 20.7049H64.3923V29.3605H61.248V20.7049H57.9404V17.9794H67.6828V20.7049Z" fill="white"/>
<path d="M70.7493 17.9794H73.6208L77.5884 29.3605H74.3953L73.7012 27.1313H70.6518L69.9747 29.3605H66.7646L70.7493 17.9794ZM73.2019 25.0496L72.1863 21.523L71.1219 25.0496H73.2019Z" fill="white"/>
<path d="M88.2809 26.4438C88.2809 26.957 88.1737 27.3975 87.9594 27.7654C87.7451 28.1333 87.4479 28.4359 87.0729 28.6707C86.6953 28.9055 86.2594 29.0797 85.7576 29.1911C85.2583 29.3024 84.7274 29.3605 84.1696 29.3605H78.541V17.9794H85.1853C85.5823 17.9794 85.9427 18.0641 86.2667 18.236C86.5882 18.4078 86.8634 18.6281 87.0899 18.9016C87.3164 19.1751 87.4893 19.4849 87.6136 19.8311C87.7378 20.1796 87.7987 20.533 87.7987 20.8961C87.7987 21.431 87.6623 21.9417 87.387 22.4258C87.1118 22.9124 86.7026 23.2778 86.1522 23.5247C86.8074 23.716 87.3262 24.0524 87.7085 24.5268C88.0909 25.0037 88.2809 25.6402 88.2809 26.4414V26.4438ZM81.6829 20.6419V22.3895H83.8287C84.043 22.3895 84.2403 22.3314 84.4181 22.2128C84.5959 22.0942 84.6836 21.8594 84.6836 21.5085C84.6836 21.1986 84.6081 20.976 84.457 20.8428C84.306 20.7097 84.1282 20.6419 83.9237 20.6419H81.6805H81.6829ZM85.0854 25.8024C85.0854 25.5241 85.0099 25.2917 84.8589 25.1053C84.7079 24.9189 84.5155 24.8245 84.2792 24.8245H81.6829V26.7319H84.1672C84.4254 26.7319 84.6421 26.652 84.8199 26.4923C84.9977 26.3325 85.0854 26.1026 85.0854 25.8024Z" fill="white"/>
<path d="M92.363 17.9794H95.2346L99.2021 29.3605H96.0091L95.315 27.1313H92.2656L91.5885 29.3605H88.3784L92.363 17.9794ZM94.8157 25.0496L93.8 21.523L92.7357 25.0496H94.8157Z" fill="white"/>
<path d="M106.96 21.6975C106.638 21.5063 106.304 21.3345 105.959 21.1844C105.669 21.0561 105.342 20.9351 104.982 20.8237C104.621 20.7124 104.268 20.6543 103.925 20.6543C103.645 20.6543 103.423 20.6979 103.255 20.7826C103.087 20.8673 103.004 21.0125 103.004 21.2159C103.004 21.3659 103.053 21.4894 103.15 21.5838C103.248 21.6806 103.387 21.7677 103.569 21.8476C103.752 21.9275 103.976 22.0049 104.239 22.08C104.502 22.155 104.802 22.247 105.135 22.3535C105.661 22.5132 106.139 22.6899 106.563 22.8836C106.986 23.0748 107.349 23.3023 107.651 23.5637C107.953 23.8251 108.185 24.1446 108.345 24.5174C108.506 24.8926 108.587 25.3452 108.587 25.8801C108.587 26.5651 108.46 27.1388 108.207 27.6035C107.953 28.0683 107.62 28.441 107.206 28.7169C106.792 28.9953 106.324 29.1962 105.803 29.3172C105.281 29.4407 104.758 29.5012 104.229 29.5012C103.81 29.5012 103.379 29.4697 102.938 29.4044C102.498 29.3414 102.059 29.2495 101.623 29.1309C101.187 29.0122 100.768 28.8743 100.364 28.7145C99.9597 28.5548 99.5871 28.3732 99.2437 28.1699L100.598 25.4299C100.973 25.6647 101.367 25.8729 101.774 26.0544C102.118 26.2142 102.507 26.3594 102.943 26.4877C103.379 26.616 103.823 26.6789 104.273 26.6789C104.617 26.6789 104.855 26.6329 104.992 26.5434C105.126 26.4538 105.194 26.3328 105.194 26.1827C105.194 26.0229 105.126 25.8874 104.992 25.7736C104.858 25.6623 104.673 25.5631 104.436 25.4783C104.2 25.3936 103.927 25.3065 103.623 25.2218C103.316 25.1371 102.992 25.0354 102.646 24.9168C102.14 24.7449 101.706 24.561 101.341 24.3649C100.975 24.1664 100.673 23.9438 100.437 23.692C100.201 23.4403 100.025 23.1547 99.9134 22.8352C99.8014 22.5157 99.7429 22.1453 99.7429 21.729C99.7429 21.0997 99.8574 20.543 100.089 20.0613C100.32 19.5796 100.634 19.1802 101.031 18.8583C101.428 18.5388 101.884 18.2943 102.395 18.1297C102.907 17.9651 103.447 17.8804 104.017 17.8804C104.436 17.8804 104.845 17.9216 105.242 18.0015C105.639 18.0813 106.024 18.183 106.397 18.3064C106.767 18.4299 107.115 18.563 107.437 18.7082C107.758 18.8535 108.051 18.989 108.309 19.1173L106.955 21.6975H106.96Z" fill="white"/>
<path d="M118.139 26.6351V29.3605H109.978V17.9794H117.993V20.7049H113.122V22.3072H117.284V24.8391H113.122V26.6351H118.139Z" fill="white"/>
<path d="M126.542 21.6975C126.22 21.5063 125.886 21.3345 125.541 21.1844C125.251 21.0561 124.924 20.9351 124.564 20.8237C124.203 20.7124 123.85 20.6543 123.507 20.6543C123.227 20.6543 123.005 20.6979 122.837 20.7826C122.669 20.8673 122.586 21.0125 122.586 21.2159C122.586 21.3659 122.635 21.4894 122.732 21.5838C122.83 21.6806 122.969 21.7677 123.151 21.8476C123.334 21.9275 123.558 22.0049 123.821 22.08C124.084 22.155 124.384 22.247 124.717 22.3535C125.243 22.5132 125.721 22.6899 126.145 22.8836C126.568 23.0748 126.931 23.3023 127.233 23.5637C127.535 23.8251 127.767 24.1446 127.927 24.5174C128.088 24.8926 128.169 25.3452 128.169 25.8801C128.169 26.5651 128.042 27.1388 127.789 27.6035C127.535 28.0683 127.202 28.441 126.788 28.7169C126.374 28.9953 125.906 29.1962 125.385 29.3172C124.863 29.4407 124.34 29.5012 123.811 29.5012C123.392 29.5012 122.961 29.4697 122.52 29.4044C122.08 29.3414 121.641 29.2495 121.205 29.1309C120.769 29.0122 120.35 28.8743 119.946 28.7145C119.542 28.5548 119.169 28.3732 118.826 28.1699L120.18 25.4299C120.555 25.6647 120.95 25.8729 121.356 26.0544C121.7 26.2142 122.089 26.3594 122.525 26.4877C122.961 26.616 123.405 26.6789 123.855 26.6789C124.199 26.6789 124.437 26.6329 124.574 26.5434C124.708 26.4538 124.776 26.3328 124.776 26.1827C124.776 26.0229 124.708 25.8874 124.574 25.7736C124.44 25.6623 124.255 25.5631 124.018 25.4783C123.782 25.3936 123.509 25.3065 123.205 25.2218C122.898 25.1371 122.574 25.0354 122.228 24.9168C121.722 24.7449 121.288 24.561 120.923 24.3649C120.557 24.1664 120.255 23.9438 120.019 23.692C119.783 23.4403 119.608 23.1547 119.495 22.8352C119.383 22.5157 119.325 22.1453 119.325 21.729C119.325 21.0997 119.439 20.543 119.671 20.0613C119.902 19.5796 120.216 19.1802 120.613 18.8583C121.01 18.5388 121.466 18.2943 121.977 18.1297C122.489 17.9651 123.029 17.8804 123.599 17.8804C124.018 17.8804 124.428 17.9216 124.825 18.0015C125.222 18.0813 125.606 18.183 125.979 18.3064C126.349 18.4299 126.697 18.563 127.019 18.7082C127.34 18.8535 127.633 18.989 127.891 19.1173L126.537 21.6975H126.542Z" fill="white"/>
</g>
<defs>
<linearGradient id="paint0_linear_275_2370" x1="0" y1="20.9853" x2="29.8766" y2="20.9853" gradientUnits="userSpaceOnUse">
<stop offset="0.462169" stop-color="#F59120"/>
<stop offset="1" stop-color="#9747FF"/>
</linearGradient>
<linearGradient id="paint1_linear_275_2370" x1="0" y1="26.1958" x2="29.8749" y2="26.1958" gradientUnits="userSpaceOnUse">
<stop offset="0.462169" stop-color="#F59120"/>
<stop offset="1" stop-color="#9747FF"/>
</linearGradient>
<clipPath id="clip0_275_2370">
<rect width="127.952" height="32" fill="white"/>
</clipPath>
<clipPath id="clip1_275_2370">
<rect width="29.9747" height="32" fill="white"/>
</clipPath>
</defs>
</svg>
